<?xml version="1.0" encoding="UTF-8" standalone="no"?>
<svg
   xmlns:dc="http://purl.org/dc/elements/1.1/"
   xmlns:cc="http://creativecommons.org/ns#"
   xmlns:rdf="http://www.w3.org/1999/02/22-rdf-syntax-ns#"
   xmlns:svg="http://www.w3.org/2000/svg"
   xmlns="http://www.w3.org/2000/svg"
   viewBox="0 0 259.84 40"
   height="40"
   width="259.84"
   xml:space="preserve"
   id="svg2"
   version="1.1"><metadata
     id="metadata8"><rdf:RDF><cc:Work
         rdf:about=""><dc:format>image/svg+xml</dc:format><dc:type
           rdf:resource="http://purl.org/dc/dcmitype/StillImage" /></cc:Work></rdf:RDF></metadata><defs
     id="defs6"><clipPath
       id="clipPath14"
       clipPathUnits="userSpaceOnUse"><path
         id="path12"
         d="M 0,7.919999 H 194.87999 V 37.92 H 0 Z" /></clipPath><clipPath
       id="clipPath24"
       clipPathUnits="userSpaceOnUse"><path
         style="clip-rule:evenodd"
         id="path22"
         d="M 0,0 H 812.5 V 125 H 0 Z" /></clipPath><clipPath
       id="clipPath36"
       clipPathUnits="userSpaceOnUse"><path
         style="clip-rule:evenodd"
         id="path34"
         d="M 0,0 H 812.5 V 125 H 0 Z" /></clipPath><clipPath
       id="clipPath48"
       clipPathUnits="userSpaceOnUse"><path
         style="clip-rule:evenodd"
         id="path46"
         d="M 0,0 H 812.5 V 125 H 0 Z" /></clipPath></defs><g
     clip-path="url(#clipPath14)"
     transform="matrix(1.3333333,0,0,-1.3333333,0,50.56)"
     id="g10"><g
       transform="matrix(0.23999999,0,0,-0.23999999,0,37.919998)"
       id="g16"><g
         id="g18"><g
           clip-path="url(#clipPath24)"
           id="g20"><g
             transform="scale(3.125)"
             id="g26"><path
               id="path28"
               style="fill:#ffffff;fill-opacity:1;fill-rule:nonzero;stroke:none"
               d="M 0,0 H 260 V 40 H 0 Z" /></g></g></g><g
         id="g30"><g
           clip-path="url(#clipPath36)"
           id="g32"><g
             transform="scale(3.125)"
             id="g38"><path
               id="path40"
               style="fill:#f8f7f4;fill-opacity:1;fill-rule:nonzero;stroke:none"
               d="M 0,0 H 260 V 40 H 0 Z" /></g></g></g><g
         id="g42"><g
           clip-path="url(#clipPath48)"
           id="g44"><g
             transform="matrix(3.1217861,0,0,3.1217861,2.6954975,10.385938)"
             id="g50"><path
               id="path52"
               style="fill:#ffffff;fill-opacity:1;fill-rule:nonzero;stroke:none"
               d="M -20.587999,-14.1175 H 278.83801 V 46.470501 H -20.587999 V -14.1175" /></g><g
             transform="matrix(3.125,0,0,3.125,2.6954975,1.5625)"
             id="g54"><text
               id="text58"
               style="font-variant:normal;font-size:28.22999954px;font-family:NotoSerifDisplay;-inkscape-font-specification:NotoSerifDisplay-ExtraCondensed;writing-mode:lr-tb;fill:#000000;fill-opacity:1;fill-rule:nonzero;stroke:none"
               transform="translate(2,29)"><tspan
                 id="tspan56"
                 y="0"
                 x="0 16.000031 20.938309 32.11293 37.051208 48.22583 53.164108 65.326385 70.264664 80.423416 85.361694 95.520447 100.45872 113.524 118.46228 129.27007 134.20834">A c c e s s o r y</tspan></text>
<text
               id="text62"
               style="font-variant:normal;font-size:28.22999954px;font-family:NotoSerifDisplay;-inkscape-font-specification:NotoSerifDisplay-ExtraCondensed;writing-mode:lr-tb;fill:#000000;fill-opacity:1;fill-rule:nonzero;stroke:none"
               transform="translate(158.78125,29)"><tspan
                 id="tspan60"
                 y="0"
                 x="0 16.451523 21.389801 33.552078 38.490356 48.649109 53.587387 60.924255 65.862534 77.996597 82.934875">D e s i g n</tspan></text>
</g></g></g></g></g></svg>